<svg id="SvgjsSvg1001" width="288" height="288" xmlns="http://www.w3.org/2000/svg" version="1.1" xmlns:xlink="http://www.w3.org/1999/xlink" xmlns:svgjs="http://svgjs.com/svgjs"><defs id="SvgjsDefs1002"></defs><g id="SvgjsG1008"><svg xmlns="http://www.w3.org/2000/svg" xmlns:svgjs="http://svgjs.com/svgjs" xmlns:xlink="http://www.w3.org/1999/xlink" width="288" height="288"><svg xmlns="http://www.w3.org/2000/svg" width="288" height="288" viewBox="0 0 1080 1080"><rect width="100%" height="100%" fill="#ffffff" class="colortransparent svgShape colorfff"></rect><rect width="1080" height="1080" x="-540" y="-540" fill="#ffffff" class="colorfff svgShape" rx="0" ry="0" transform="translate(540 540)" vector-effect="non-scaling-stroke"></rect><path fill="#138738" d="M 2.5 12 C 2.5 11.723857625084603 2.7238576250846034 11.5 3 11.5 L 13 11.5 C 13.276142374915397 11.5 13.5 11.723857625084603 13.5 12 C 13.5 12.276142374915397 13.276142374915397 12.5 13 12.5 L 3 12.5 C 2.7238576250846034 12.5 2.5 12.276142374915397 2.5 12 z M 2.5 8 C 2.5 7.723857625084603 2.7238576250846034 7.5 3 7.5 L 13 7.5 C 13.276142374915397 7.5 13.5 7.723857625084603 13.5 8 C 13.5 8.276142374915397 13.276142374915397 8.5 13 8.5 L 3 8.5 C 2.7238576250846034 8.5 2.5 8.276142374915397 2.5 8 z M 2.5 4 C 2.5 3.7238576250846034 2.7238576250846034 3.5 3 3.5 L 13 3.5 C 13.276142374915397 3.5 13.5 3.7238576250846034 13.5 4 C 13.5 4.276142374915397 13.276142374915397 4.5 13 4.5 L 3 4.5 C 2.7238576250846034 4.5 2.5 4.276142374915397 2.5 4 z" class="color4747d1 svgShape colorfbb033" transform="translate(225.84 225.84) scale(39.27)" vector-effect="non-scaling-stroke"></path></svg></svg></g></svg>